<?xml version="1.0" standalone="no"?>
<!DOCTYPE svg PUBLIC "-//W3C//DTD SVG 20010904//EN"
 "http://www.w3.org/TR/2001/REC-SVG-20010904/DTD/svg10.dtd">
<svg version="1.0" xmlns="http://www.w3.org/2000/svg"
 width="2048.000000pt" height="2048.000000pt" viewBox="0 0 2048.000000 2048.000000"
 preserveAspectRatio="xMidYMid meet">

<g transform="translate(0.000000,2048.000000) scale(0.100000,-0.100000)"
fill="#000000" stroke="none">
<path d="M10535 14714 c-166 -25 -337 -75 -460 -136 -386 -191 -655 -535 -729
-933 -9 -49 -18 -98 -20 -107 -4 -17 66 -18 1355 -18 l1359 0 0 34 c0 88 -64
304 -128 431 -149 298 -426 541 -745 654 -148 52 -264 72 -442 76 -88 2 -173
1 -190 -1z m-191 -266 c28 -40 20 -66 -31 -98 -62 -39 -88 -39 -113 3 -11 17
-19 39 -17 47 3 18 94 69 124 70 12 0 29 -10 37 -22z m-275 -128 c10 -5 24
-24 32 -41 13 -32 12 -33 -26 -63 -121 -95 -197 -185 -271 -323 -45 -84 -69
-100 -105 -67 -24 22 -24 41 1 98 51 119 189 292 295 369 58 42 51 40 74 27z"/>
<path d="M5348 13887 c-130 -158 -146 -293 -70 -622 22 -93 92 -404 157 -690
64 -286 160 -707 212 -935 51 -228 150 -665 218 -970 139 -626 296 -1274 321
-1325 18 -38 87 -101 269 -247 281 -224 361 -360 422 -713 25 -151 23 -463 -5
-670 -12 -88 -25 -200 -28 -250 -7 -95 -18 -123 -79 -209 -37 -51 -42 -77 -24
-139 18 -65 61 -104 142 -128 68 -20 77 -26 175 -124 165 -167 324 -249 504
-261 46 -3 97 -10 115 -15 46 -14 108 -87 202 -236 105 -167 198 -281 291
-360 93 -78 121 -91 157 -72 40 22 76 75 77 116 1 36 -1 38 -79 82 -187 105
-332 317 -343 502 l-4 75 51 43 c156 131 251 345 251 566 0 337 -233 681 -526
777 -89 30 -204 48 -301 48 -92 0 -138 17 -198 72 -68 62 -87 108 -136 331
-55 251 -39 202 -334 1092 -249 755 -383 1165 -645 1975 -61 190 -158 491
-216 670 -58 179 -127 393 -154 475 -164 510 -385 1175 -390 1174 -3 0 -17
-15 -32 -32z m1116 -3891 c84 -35 122 -158 74 -240 -27 -47 -95 -86 -148 -86
-87 0 -170 83 -170 169 1 69 49 141 110 164 29 11 101 7 134 -7z m1188 -2116
c228 -70 398 -312 400 -566 1 -268 -165 -470 -398 -482 -159 -8 -275 38 -395
157 -137 138 -206 330 -181 505 20 139 94 265 197 336 101 69 251 89 377 50z"/>
<path d="M7372 13803 c-43 -125 -125 -379 -397 -1228 -92 -286 -245 -758 -341
-1049 l-175 -528 70 -212 c102 -307 241 -747 241 -762 0 -8 3 -14 8 -14 10 0
46 155 312 1345 131 589 289 1291 350 1560 128 563 138 624 122 727 -13 85
-66 199 -115 246 l-34 33 -41 -118z"/>
<path d="M14230 13809 c-186 -26 -344 -179 -380 -368 -7 -36 -10 -1195 -10
-3491 0 -3787 -5 -3500 61 -3574 45 -52 103 -76 182 -76 107 0 174 38 220 125
l22 40 6 1200 c6 1323 2 1248 70 1410 75 182 231 336 414 409 117 47 208 56
544 56 168 0 335 5 371 10 91 15 147 51 182 119 25 48 28 63 28 152 l0 99
-720 0 c-707 0 -720 0 -740 20 -23 23 -26 68 -6 96 14 18 35 19 740 22 l726 2
0 65 0 65 -719 2 c-691 3 -720 4 -740 22 -25 23 -28 77 -5 100 8 9 16 17 17
18 1 2 326 5 722 8 l720 5 0 65 0 65 -716 5 c-687 5 -718 6 -738 24 -31 29
-28 81 6 103 25 17 78 18 740 22 l713 3 0 64 0 64 -714 0 c-706 0 -714 0 -740
21 -33 26 -36 77 -5 105 20 18 49 19 740 22 l719 2 0 65 0 64 -721 3 -721 3
-19 24 c-27 34 -24 75 7 100 26 21 34 21 740 21 l714 0 0 65 0 65 -697 1
c-750 0 -759 1 -777 50 -13 38 0 78 30 89 15 6 303 10 735 10 l709 0 0 70 0
70 -714 0 c-706 0 -714 0 -740 21 -32 25 -35 70 -6 99 20 20 33 20 603 20 321
0 645 3 720 7 l137 6 0 63 0 63 -719 3 c-691 3 -720 4 -740 22 -28 25 -28 77
0 102 20 18 49 19 740 22 l719 2 0 65 0 65 -714 0 c-706 0 -714 0 -740 21 -33
26 -36 77 -5 105 20 18 49 19 740 22 l719 2 0 65 0 65 -714 0 c-706 0 -714 0
-740 21 -33 26 -36 77 -5 105 20 18 49 19 740 22 l719 2 0 65 0 65 -373 0
c-206 0 -530 3 -722 7 -319 6 -350 8 -367 25 -24 24 -23 70 3 94 20 18 49 19
740 22 l719 2 0 70 0 70 -709 0 c-432 0 -720 4 -735 10 -42 16 -48 98 -8 119
11 6 299 10 717 12 385 1 708 4 718 6 14 4 17 16 17 69 l0 64 -714 0 c-706 0
-714 0 -740 21 -32 25 -35 70 -6 99 25 25 19 24 280 25 118 0 432 1 698 3
l482 2 0 73 c0 133 -39 215 -124 260 -40 21 -53 22 -481 28 -609 9 -1028 8
-1105 -2z"/>
<path d="M8910 13381 c-6 -11 -10 -91 -10 -189 0 -147 2 -173 18 -192 l17 -21
1680 -4 c924 -2 1720 -1 1768 2 75 5 90 9 100 27 17 31 16 359 -2 380 -12 14
-184 16 -1787 16 -1743 0 -1773 0 -1784 -19z"/>
<path d="M9378 12852 l-148 -3 0 -2584 0 -2585 1473 2 1472 3 0 2585 0 2585
-1325 0 c-729 0 -1391 -1 -1472 -3z m2607 -199 c-1 -35 -2 -1138 -3 -2453 l-2
-2390 -1280 0 -1280 0 0 2455 0 2455 1283 -2 1282 -3 0 -62z"/>
<path d="M10485 12398 c-171 -111 -443 -286 -605 -389 -162 -103 -305 -195
-317 -204 l-23 -16 0 -439 c0 -242 4 -440 8 -440 4 0 104 62 222 138 118 76
330 212 470 302 140 90 509 330 820 533 311 204 618 404 682 446 l117 76 1 98
0 97 -533 0 -533 0 -309 -202z"/>
<path d="M11505 11344 c-192 -125 -514 -333 -715 -464 -433 -282 -811 -525
-1045 -675 -93 -59 -176 -113 -183 -120 -9 -8 -12 -106 -10 -449 l3 -437 185
118 c879 563 1244 800 1718 1111 l402 264 0 439 c0 241 -1 439 -2 439 -2 0
-160 -102 -353 -226z"/>
<path d="M11360 9535 c-876 -569 -1171 -760 -1490 -964 l-315 -202 -5 -215 -5
-214 357 0 357 0 293 188 c484 312 1076 694 1192 771 l110 72 4 440 c3 248 1
439 -4 439 -5 0 -227 -142 -494 -315z"/>
<path d="M11778 8097 c-37 -23 -106 -67 -155 -97 l-88 -55 155 -6 c85 -4 158
-5 163 -2 4 2 7 49 7 104 0 54 -3 99 -7 99 -5 0 -38 -19 -75 -43z"/>
<path d="M5927 9332 c-138 -369 -197 -559 -252 -810 -46 -208 -59 -242 -108
-298 -61 -70 -121 -94 -233 -94 -301 0 -525 -117 -680 -355 -329 -505 -69
-1139 481 -1172 224 -14 435 79 607 267 74 81 120 112 195 130 70 17 123 97
123 186 0 21 -14 48 -43 86 -59 76 -64 92 -76 248 -6 74 -18 207 -27 295 -38
379 13 749 133 965 35 63 171 210 238 258 l30 22 -45 37 c-82 67 -158 152
-184 205 -14 29 -35 91 -47 138 -12 47 -25 88 -28 92 -3 4 -41 -86 -84 -200z
m-504 -1451 c184 -64 297 -237 297 -455 0 -265 -169 -506 -403 -578 -103 -31
-228 -23 -320 19 -119 56 -205 164 -242 304 -19 71 -19 209 0 284 49 193 199
362 373 422 88 30 214 31 295 4z"/>
<path d="M8917 7542 c-14 -16 -17 -45 -17 -190 0 -102 4 -181 11 -195 l11 -24
301 -5 c166 -2 963 -3 1771 -3 1420 2 1469 2 1482 20 17 23 20 365 4 396 -11
19 -41 19 -1779 19 -1700 0 -1769 -1 -1784 -18z"/>
<path d="M9330 6985 c0 -39 42 -222 70 -306 140 -420 505 -755 945 -869 474
-122 951 6 1302 350 227 223 353 475 397 798 l6 42 -1360 0 c-1188 0 -1360 -2
-1360 -15z"/>
</g>
</svg>
